<?xml version="1.0" encoding="utf-8"?>
<!-- Generator: Adobe Illustrator 25.0.1, SVG Export Plug-In . SVG Version: 6.00 Build 0)  -->
<svg version="1.1" xmlns="http://www.w3.org/2000/svg" xmlns:xlink="http://www.w3.org/1999/xlink" x="0px" y="0px"
	 viewBox="0 0 1920.28 1080" style="enable-background:new 0 0 1920.28 1080;" xml:space="preserve">
<style type="text/css">
	.st0{fill:none;stroke:#FFF650;stroke-width:6;stroke-linecap:round;stroke-linejoin:round;stroke-miterlimit:10;}
</style>
<g id="Curva1">
</g>
<g id="Linea1">
	<path class="st0" d="M1014.06,486.35h34.27c-1.92-18.5-14.58-35.09-30.03-44.71c-24.01-14.95-55.6-15.78-82.79-11.23
		c-19.62,3.28-39.29,11.11-51.03,28.01c-9.65,13.9-13.27,31.38-7.57,47.62c4.35,12.4,13.22,22.02,24.58,28.4
		c16.45,9.24,35.76,12.25,54.08,15.59c18.36,3.35,41.88,6.02,55.68,19.96c3.78,3.81,6.56,8.84,7.1,14.12"/>
	<line class="st0" x1="1014" y1="485.86" x2="0" y2="485.86"/>
	<line class="st0" x1="898" y1="583.86" x2="1920" y2="583.86"/>
</g>
<g id="Linea2">
</g>
<g id="Curva2">
	<path class="st0" d="M911.41,486.35c-1.24,6.1,2.29,12.78,6.61,16.72c4.07,3.71,9.1,5.98,14.19,7.9
		c25.79,9.71,54.07,10.08,79.92,19.92c14.09,5.36,27.13,13.44,35.05,26.63c13.5,22.48,9.13,53.01-10.2,70.63
		c-27.86,25.39-69.49,26.66-104.55,19.16c-31.41-6.72-64.41-28.79-68.49-63.23l0,0.03h34.41"/>
</g>
<g id="Livello_3">
</g>
</svg>
