<svg xmlns="http://www.w3.org/2000/svg" viewBox="0 0 720.06 839.18"><g id="Curva1"><path d="M1176.83,703.72c-2-19.5-12.28-38-26.21-52.11-50.94-51.43-137.76-61.3-205.5-73.65-67.57-12.32-138.86-23.42-199.55-57.52-42-23.56-74.67-59.07-90.73-104.82-21-59.92-7.69-124.43,27.92-175.73,43.3-62.35,115.89-91.25,188.3-103.36C971.39,119.75,1088,122.82,1176.59,178c57,35.48,103.73,96.73,110.8,165" transform="translate(-599.44 -120.06)" style="fill:none;stroke:#fff650;stroke-linecap:round;stroke-miterlimit:10;stroke-width:15px"/></g><g id="Linea1"><line x1="687.94" y1="222.91" x2="561.49" y2="222.91" style="fill:none;stroke:#fff650;stroke-linecap:round;stroke-miterlimit:10;stroke-width:15px"/></g><g id="Linea2"><line x1="7.51" y1="583.65" x2="134.51" y2="583.65" style="fill:none;stroke:#fff650;stroke-linecap:round;stroke-miterlimit:10;stroke-width:15px"/></g><g id="Curva2"><path d="M606.94,703.6c15,127.1,136.84,208.53,252.75,233.34,129.38,27.68,283,23,385.83-70.69,71.33-65,87.47-177.67,37.65-260.64-29.23-48.69-77.36-78.49-129.36-98.29-95.39-36.31-199.74-37.68-294.92-73.51-18.79-7.07-37.37-15.46-52.38-29.14-15.94-14.53-29-39.18-24.39-61.7" transform="translate(-599.44 -120.06)" style="fill:none;stroke:#fff650;stroke-linecap:round;stroke-miterlimit:10;stroke-width:15px"/></g></svg>