<svg id="Livello_1" data-name="Livello 1" xmlns="http://www.w3.org/2000/svg" viewBox="0 0 301.8 500"><path d="M295.1,354.53a5.24,5.24,0,0,1-1.1-1,10.14,10.14,0,0,1-1-2.4c-1.4-3.7-5.5-6.6-8.8-8.5a50.71,50.71,0,0,0-12-5c-4.2-1.1-7.9-2.7-10.7-6.1a87.67,87.67,0,0,1-7.4-11.6c-3-5.4-5.9-11-8.5-16.7-3.3-7-1.2-14.6-.7-22.1.1-.7-.1-8.1.5-8.4-3.9,1.7-6.3,8.4-7.7,12.1a122.68,122.68,0,0,0-3.9,14.4c-1.1,4.7-4.5,8.9-7.3,12.7s-6.6,5.1-10.8,7-8.4,3.9-12.5,5.9c-8.3,4-16.6,8-24.9,12.1-12,6-23.9,12.2-35.6,18.9-14.6,8.4-27.4,16.1-34.7,32-9.4,20.6-11.1,44.1-14.6,66.2-2.3,14.6-4.4,29.3-6.1,44H299.7V360.23a7.49,7.49,0,0,0-.5-1.6,7.84,7.84,0,0,1-.5-1.4,3.51,3.51,0,0,0-.6-1.4,4.13,4.13,0,0,0-1.5-.7A4,4,0,0,1,295.1,354.53Z" style="fill:none;stroke:#000;stroke-linecap:round;stroke-linejoin:round"/><path d="M245.6,272.83a188.06,188.06,0,0,0,0-19.3" style="fill:none;stroke:#000;stroke-linecap:round;stroke-linejoin:round"/><path d="M299.8,276.13c-10.9.1-17.9-.8-26.1-5-8.9-4.6-17.8-9.2-25.3-15.9-6.9-6.1-10.6-13.6-11.9-22.6l-4.5-31.5c-.4-3.1,0-.14-.48-3.24" style="fill:none;stroke:#000;stroke-linecap:round;stroke-linejoin:round"/><path d="M223.9,205.83c-2.7-4.4-6.1-9.4-6.7-14.7a46,46,0,0,1,0-8.3c.1-1.4.3-2.8.4-4.2.1-1.1.4-2.6,1.9-1.7a6.22,6.22,0,0,1,2.2,3.5" style="fill:none;stroke:#000;stroke-linecap:round;stroke-linejoin:round"/><path d="M230.4,206.43a17.79,17.79,0,0,1-3.7-4.5,13,13,0,0,1-1.1-8.9,17.67,17.67,0,0,0,.8-3.3c.1-.9.4-1.8,1.4-1.9" style="fill:none;stroke:#000;stroke-linecap:round;stroke-linejoin:round"/><path d="M299.8,225.13c-6,0-6.6-1.2-9.8-.9s-6,1.8-9,3c-3.5,1.4-6.1,3.5-10.5,3.5" style="fill:none;stroke:#000;stroke-linecap:round;stroke-linejoin:round"/><path d="M299.8,229.63c-3.3,0-5.6,0-8.9.1-3.1,0-6.1,0-9.3.3-2.8.2-5.6,1.1-8.4.8,5.7,2.3,9.8,3.5,14.5,3.8s7.6-.1,12.2.1" style="fill:none;stroke:#000;stroke-linecap:round;stroke-linejoin:round"/><path d="M224.4,314.43c-6,11.6-11.5,24.8-11.8,38a30.43,30.43,0,0,0,.6,7.4c2.8-1.8,5.7-3.6,8.7-5.2,5.4-3,11.5-4.6,16.3-8.6,4.4-3.7,8.2-8.4,13.6-10.7,5.1-2.2,9.5-.3,14.5,1a19.81,19.81,0,0,0,4.1.8" style="fill:none;stroke:#000;stroke-linecap:round;stroke-linejoin:round"/><path d="M300.1,205.83c-3.1-.3-3.8-2.1-5.3-3.8s-3.6-2.5-5.5-1.2a1.68,1.68,0,0,0-.9,1.9c.2,1,2.9,2.2,1.9,2.3-1.9.3-4.5.8-6.3,0a7.35,7.35,0,0,1-3.5-4.9c-.9-4.3,1.8-8.7,4.1-12.1,6.9-10.1,5.2-8.5,5.2-8.5" style="fill:none;stroke:#000;stroke-linecap:round;stroke-linejoin:round"/><path d="M250.7,159.63c3.7-1.8,6.4-5.1,10-7a13.32,13.32,0,0,1,9.8-.8c3.6,1.1,6.4,3.7,9.4,6,.8.6.4.1-.2.6a17.91,17.91,0,0,1-2.4,1.2,30.44,30.44,0,0,1-9.9,2.3c-10.1.8-14.3-3.7-14.3-3.7" style="fill:none;stroke:#000;stroke-linecap:round;stroke-linejoin:round"/><path d="M250.7,154.23a55.83,55.83,0,0,0,4.8-3.7,17.24,17.24,0,0,1,14.8-3.6c3.5.7,6.1,2.4,8.9,4.4" style="fill:none;stroke:#000;stroke-linecap:round;stroke-linejoin:round"/><path d="M262,161.73a6.31,6.31,0,0,1-2.8-5.3,5.86,5.86,0,0,1,1.2-3.7" style="fill:none;stroke:#000;stroke-linecap:round;stroke-linejoin:round"/><path d="M269.6,151.53a6.38,6.38,0,0,1,2.3,4.9,6.49,6.49,0,0,1-2.6,5.2" style="fill:none;stroke:#000;stroke-linecap:round;stroke-linejoin:round"/><circle cx="265.5" cy="156.23" r="0.9" style="fill:none;stroke:#000;stroke-miterlimit:10;stroke-width:3px"/><path d="M285.1,139.53c.1,0-.3-3.1-.3-3.3a6,6,0,0,0-4.2-4.4,37.78,37.78,0,0,0-8.9-.7,59.26,59.26,0,0,0-22.3,5.3,32.39,32.39,0,0,0-3.2,1.7,6.73,6.73,0,0,0-1.1.7,14.84,14.84,0,0,0-3.3,2.8,13,13,0,0,1-3.2,3C236.2,145.93,259.4,134.93,285.1,139.53Z" style="fill:none;stroke:#000;stroke-miterlimit:10"/><path d="M294.8,153.53s4.3,3,0,11" style="fill:none;stroke:#000;stroke-linecap:round;stroke-linejoin:round"/><path d="M228.16,182.66a1.17,1.17,0,0,0-.34-.36,3.17,3.17,0,0,1-.34-.39,5.15,5.15,0,0,1-.65-.95c-.32-.61-.56-1.27-.82-1.91-.1-.24-.2-.48-.31-.72-.9-2-1.6-4-2.4-5.9a12.72,12.72,0,0,0-3.4-5.2c-2.8-2.3-6.6.1-7.3,3.3a30.88,30.88,0,0,0-.2,6.1c0,2.5-1.7,8.7-.8,14.8.9,5.8,4.4,11.6,5.5,13.7,5.4,9.7,18.4,20.8,18.4,20.8" style="fill:none;stroke:#000;stroke-miterlimit:10"/><path d="M300.2,87a79.32,79.32,0,0,0-35.5,4c-9.4,3.3-20.3,8.2-25.5,17.3a40.09,40.09,0,0,0-4.8,13.9c-2.83,17.66-2.74,35.54-1.62,53.34.17,2.61.46,5.21.81,7.8q.87,6.42,1.7,12.86a1.89,1.89,0,0,1-.08,1.08,2.07,2.07,0,0,1-1.81.85c-.39,0-1.71.26-1.88-.27,0,0-1.35-7.16-1.37-7.26-.1-.4-.2-.8-.31-1.2-1.18-4.37-2.21-8.79-3.13-13.22q-.36-1.76-.69-3.51c-.23-1.17-.44-2.34-.65-3.52s-.4-2.34-.58-3.52-.37-2.34-.54-3.52-.33-2.33-.49-3.5-.3-2.32-.44-3.48-.27-2.3-.4-3.45-.23-2.27-.34-3.41-.22-2.23-.31-3.35-.19-2.19-.27-3.29-.15-2.14-.22-3.21-.13-2.09-.19-3.14-.11-2-.15-3-.09-2-.12-2.94l-.09-2.83c0-.91,0-1.81,0-2.71s0-1.72,0-2.58,0-1.63,0-2.44,0-1.53,0-2.29,0-1.42.05-2.13.05-1.31.08-2,.07-1.19.11-1.78l.06-.88c1.3-17.3,9.5-20.5,9.5-20.5" style="fill:none;stroke:#000;stroke-miterlimit:10"/><path d="M245.7,100.73s-19.2-19.3-40.5-24.1c0,0,19.1-7,31.1-3.8,0,0-4.6-12-21.8-18.7,0,0,22.4.1,41.6,8.3,0,0-15.7-14.9-17.9-28.2,0,0,24.4,13.9,36.1,19.8,0,0-3.3-9.9-14.5-22,0,0,21.3,3,35.8,21.1,0,0-4.5-15.4-10.5-26,0,0,10.5,6.6,14.6,10.8" style="fill:none;stroke:#000;stroke-linecap:round;stroke-linejoin:round"/><path d="M235.6,228.43a2.3,2.3,0,0,1-1.5,1.1c-1.6.2-3.2-1.8-3.6-4.5-.4-2.5.4-4.8,1.8-5.3" style="fill:none;stroke:#000;stroke-linecap:round;stroke-linejoin:round"/><path d="M251.8,335.33a105.17,105.17,0,0,0,10.2,9.8c3.8,2.9,8.1,5.4,11.1,9.1,3.5,4.2,5.8,9.5,7.7,14.6,8.4,22.5,3.3,47.9,2.7,71.2-.3,14.1-.6,28.1-.5,42.2,0,1,.32,14.16.62,15.8" style="fill:none;stroke:#000;stroke-linecap:round;stroke-linejoin:round"/><path d="M299.8,385.53a4.7,4.7,0,0,1,0-9.4" style="fill:none;stroke:#000;stroke-linecap:round;stroke-linejoin:round"/><path d="M299.8,382.23a1.4,1.4,0,1,1,0-2.8" style="fill:none;stroke:#000;stroke-linecap:round;stroke-linejoin:round"/><path d="M299.8,473.93a4.7,4.7,0,1,1,0-9.4" style="fill:none;stroke:#000;stroke-linecap:round;stroke-linejoin:round"/><path d="M299.8,470.63a1.4,1.4,0,0,1,0-2.8" style="fill:none;stroke:#000;stroke-linecap:round;stroke-linejoin:round"/></svg>