<?xml version="1.0" encoding="utf-8"?>
<!-- Generator: Adobe Illustrator 25.1.0, SVG Export Plug-In . SVG Version: 6.00 Build 0)  -->
<svg version="1.1" id="Livello_1" xmlns="http://www.w3.org/2000/svg" xmlns:xlink="http://www.w3.org/1999/xlink" x="0px" y="0px"
	 viewBox="0 0 7124 4749" style="enable-background:new 0 0 7124 4749;" xml:space="preserve">
<style type="text/css">
	.st0{fill:none;stroke:#5AFF66;stroke-width:20;stroke-miterlimit:10;}
</style>
<polyline class="st0" points="0,1020.4 2866.5,832.9 3344.1,1177 3552.5,2827.6 3106.2,2843.7 "/>
<polyline class="st0" points="722.5,2924 1624.3,2887.2 3046.9,3034.3 "/>
<polyline class="st0" points="615.3,3641.2 1586.5,3612.1 3153.7,3656.5 "/>
<polyline class="st0" points="1960.3,4278.3 2701.7,4247.7 2701.7,4749 "/>
<polyline class="st0" points="0,3000.7 690.3,2970.1 771.5,3000.7 "/>
<polyline class="st0" points="3139.9,4577 3336,4577 3941.1,4618.4 4178.5,4667.4 4460.4,4730.2 4530.9,4749 "/>
<polyline class="st0" points="1839.3,4749 1868.4,4120.5 2899.4,4094.5 2910.1,4737.9 "/>
<polyline class="st0" points="0,796.8 2845.7,588.4 2845.7,537.4 3339,1015.3 "/>
<polyline class="st0" points="93.4,147.3 635.7,109.5 811.4,314.7 "/>
<line class="st0" x1="898.2" y1="172.8" x2="769.5" y2="0"/>
<polyline class="st0" points="0,1891.6 788.4,1845.6 1018.2,2006.5 "/>
<polyline class="st0" points="2250,2598.7 2750.8,2581 3113.8,3009.9 "/>
<polyline class="st0" points="1205.1,2139.8 1884.7,2611.6 2119,2603.3 "/>
<line class="st0" x1="1323" y1="1478" x2="1462.4" y2="1625"/>
<line class="st0" x1="1623.3" y1="1781.3" x2="1715.2" y2="1865.6"/>
<polyline class="st0" points="1834.7,1975.9 1900.6,2040.2 2740.6,2008 3091.3,2567.7 "/>
<line class="st0" x1="946.2" y1="1307.4" x2="2741.6" y2="1207.3"/>
<line class="st0" x1="2661.9" y1="1307.4" x2="2974.4" y2="1291.1"/>
<line class="st0" x1="2915.2" y1="1340.6" x2="3131.2" y2="1325.8"/>
<line class="st0" x1="2940.7" y1="2080.8" x2="3260.1" y2="2067.8"/>
<line class="st0" x1="3071.4" y1="2637.1" x2="3353.3" y2="2626.9"/>
</svg>
