<?xml version="1.0" encoding="utf-8"?>
<!-- Generator: Adobe Illustrator 25.1.0, SVG Export Plug-In . SVG Version: 6.00 Build 0)  -->
<svg version="1.1" id="Livello_1" xmlns="http://www.w3.org/2000/svg" xmlns:xlink="http://www.w3.org/1999/xlink" x="0px" y="0px"
	 viewBox="0 0 3100 2067" style="enable-background:new 0 0 3100 2067;" xml:space="preserve">
<style type="text/css">
	.st0{fill:none;stroke:#4DFF5A;stroke-width:10;stroke-miterlimit:10;}
	.st1{fill:none;}
</style>
<path class="st0" d="M1606.3,1079.6c-4.7-32.1-21.1-66.3-48.3-85c-38-26.2-83.2-14.4-119.7,7.8c-17.8,10.9-39.4,13.3-59.2,7.3
	c-17.7-5.3-32.8-16.3-49.7-23.4c-18-7.6-36.5-13.4-55.7-17.2"/>
<path class="st0" d="M1153.4,1012.6c-20.2,23.1-29.6,56.8-34.3,86.3c-6.3,39.9-4,81.1,3.5,120.6c5.2,27.4,13.4,54.9,27.3,79.2
	c32.4,56.6,101.8,69.9,159.1,44.4c19.9-8.9,38.1-21.2,55.3-34.5c13.6-10.6,25-23.9,39.6-33.3c29.9-19.2,63.2-0.9,94.4,2.4
	c26.2,2.8,54.2-3,75.4-19.1c33.2-25.2,46-72.2,40.7-112.6"/>
<line class="st0" x1="810.8" y1="1548.6" x2="1267.3" y2="1484.3"/>
<line class="st0" x1="795.4" y1="1755.4" x2="1294.1" y2="1663.5"/>
<line class="st0" x1="804.6" y1="1823.6" x2="1294.1" y2="1725.6"/>
<polyline class="st0" points="2166.5,1883.4 2208.4,1531 2076.6,1419.7 "/>
<polyline class="st0" points="2251.3,1861.9 2330.9,1514.7 2175.7,1411.5 "/>
<polyline class="st0" points="2022.5,1476.4 1993.9,1480 1981.7,1766.4 "/>
<path class="st0" d="M2381,1609.9c9.1,1.7,18.3,3.2,27.5,4.4c61,7.7,121.8,1.1,175.2-31.4c49-29.9,77.6-77.5,83.8-134.3
	c5.1-46.9-3.3-94.7-17.1-139.4c-4.9-15.9-10.6-31.5-17-46.8c-0.5-1.1-6.9-17.8-8-17.6c-36,6.3-66.5-9.4-84.1-40.9
	c-14.5-25.9-21.4-57.3-22.9-86.8c-1.3-25.4,1.7-52.8,19.4-72.5c8.5-9.5,20.5-15.5,33-17.3c9.8-1.5,23.3-0.7,32.6,3.1
	c2.2,0.9,19.8-66.3,20.9-72.6c4.6-26.3,5.7-53.5,2.3-80c-4.4-34.1-20.4-59.8-44.7-83.4c-11.9-11.6-25.1-21.9-39.2-30.8
	c-16.8-10.6-35.4-17.9-53.4-26.2c-35.3-16.1-78.5-44.8-82.8-87.8"/>
<path class="st0" d="M2069.8,1419.7c0,0-47.3-58.7,28.3-235.7c0,0,64.3,22.7,85.8-69.7c8.2-35.3,18.8-97.1-31.7-101.5
	c-5.1-0.4-10.2-0.6-15.3-0.6c-1.6,0-4.5-28.2-4.7-30c-4.9-44.8-2.7-95.8,19.1-136.6c11.9-22.2,30.9-39.2,50.7-54.2
	c22.3-16.8,44.6-33.6,67.9-48.8c25-16.3,52.9-31.5,64.3-61c0.7-1.8,1.3-3.6,1.8-5.4"/>
<path class="st0" d="M854.2,1396.2c0,0-38.8-55.1-55.1-279.8c-4-55.5-15.5-114-52.6-158.2c-78-93.2-243.8-98.2-328-11.1
	c-21.6,22.4-36.9,50.4-42.7,81.1c-7.9,41.5,1,87.3,9.7,128.1c18.7,88.1,26.1,178.1,33.6,267.7c1.1,13.2,1.7,26.5,4.3,39.5
	c5,24.2,22.3,44.4,41.9,58.6c66.5,47.8,184.4,20.4,227.5-48.2"/>
<path class="st0" d="M617,1172.6"/>
<path class="st0" d="M526.6,1154.2l74.3-5.4c0,0,22.2-5.4,24.5,23.7c2.3,29.1,5.4,96.5,5.4,96.5"/>
<path class="st1" d="M625.4,1172.6"/>
<path class="st0" d="M2154.6,1224.6c-2.9,7.1-3.2,16,3.2,21.3c3,2.5,6.9,3.8,10.8,4.3c27.2,3.6,36.1-28.9,37.7-50.1
	c1.7-22,3.8-44.3,10.2-65.6c4-13.4,11.5-38.9,27.7-41.7c6.7-1.2,15.2,2.1,17.9,8.7c1.7,4.1-0.4,8.4-3.4,11.4"/>
<path class="st0" d="M2539.4,1270c2.6,8.8,1.9,19.6-6.4,25.2c-3.9,2.7-8.8,3.7-13.5,3.8c-33,1-39.8-39-39.2-64.6
	c0.6-26.6,0.8-53.6-4.3-79.8c-3.2-16.5-9.1-48-28.1-53.3c-7.9-2.2-18.5,0.7-22.5,8.3c-2.5,4.7-0.5,10.2,2.7,14"/>
</svg>
