<svg xmlns="http://www.w3.org/2000/svg" viewBox="0 0 1920 1080"><defs><style>.cls-1{fill:none;stroke:#1d1d1b;stroke-miterlimit:10;stroke-width:13px;}</style></defs><g id="Livello_1" data-name="Livello 1"><path class="cls-1" d="M2021.77,615.21s-144-600.51-533.11-772.08"/></g><g id="Livello_2" data-name="Livello 2"><path class="cls-1" d="M2043.94,999.23c-82.12-45.63-160.22-100.23-233.1-159.34-62.4-50.61-121.69-106.06-171.84-169-51.65-64.83-81.3-133.8-103.11-213.34-33.24-121.19-74.62-230.22-157.43-326.83-58-67.65-125.89-126.85-192.12-186.07"/></g><g id="Livello_3" data-name="Livello 3"><path class="cls-1" d="M999.6,1117.13c87.28,9.69,181.38-14.61,258-55.28,90.8-48.21,168.16-126.87,213.7-218.89,47.38-95.76,88-195,141-287.88,77.34-135.64,186.46-261.33,316.34-349,8.31-5.6,16.73-11.07,25.42-16.07"/></g><g id="Livello_4" data-name="Livello 4"><path class="cls-1" d="M113.06-60.06A1647.25,1647.25,0,0,1,300.77,204.35c51,89.27,108.87,191.46,125.05,293.85,20.23,128-4.92,263.78-72,374.93a2311.6,2311.6,0,0,1-190.74,270.73c-.74.91-1.48,1.81-2.23,2.71"/></g><g id="Livello_5" data-name="Livello 5"><path class="cls-1" d="M729.78,1096.57C655.56,908,511,737.86,304.47,697.07a633.43,633.43,0,0,0-78.84-10.22A1139.7,1139.7,0,0,0-3.62,694.5c-4.64.63-9.27,1.3-13.89,2.07"/></g><g id="Livello_6" data-name="Livello 6"><path class="cls-1" d="M-33.73,372.24C56.11,432.78,185,481.78,291.71,441.93,372.23,411.86,413.78,331.68,456,262.61,506.14,180.49,572.45,110.94,648.48,52,689.31,20.4,733-9.48,779.78-31.81"/></g></svg>